<?xml version="1.0" encoding="utf-8"?>
<!-- Generator: Adobe Illustrator 25.0.0, SVG Export Plug-In . SVG Version: 6.00 Build 0)  -->
<svg version="1.1" id="レイヤー_1" xmlns="http://www.w3.org/2000/svg" xmlns:xlink="http://www.w3.org/1999/xlink" x="0px"
	 y="0px" viewBox="0 0 127.78 21.19" style="enable-background:new 0 0 127.78 21.19;" xml:space="preserve">
<g>
	<path d="M9.05,10.11C8.21,9.93,7.53,9.75,7,9.56C6.46,9.36,6.05,9.15,5.75,8.91c-0.3-0.24-0.51-0.5-0.63-0.79
		C5,7.83,4.95,7.51,4.95,7.15c0-0.35,0.07-0.67,0.23-0.97c0.15-0.3,0.37-0.56,0.65-0.78C6.1,5.18,6.44,5.01,6.84,4.88
		c0.39-0.13,0.84-0.19,1.33-0.19c0.78,0,1.52,0.13,2.23,0.39c0.71,0.26,1.42,0.68,2.13,1.25l0.99-1.32
		c-0.78-0.61-1.58-1.07-2.41-1.38c-0.83-0.3-1.79-0.46-2.9-0.46c-0.72,0-1.38,0.1-1.99,0.31c-0.6,0.21-1.13,0.5-1.58,0.86
		C4.2,4.72,3.85,5.15,3.61,5.66c-0.25,0.5-0.37,1.06-0.37,1.66c0,0.63,0.1,1.18,0.3,1.64c0.2,0.46,0.51,0.86,0.93,1.21
		c0.42,0.35,0.95,0.64,1.59,0.89c0.64,0.25,1.4,0.46,2.26,0.65c0.79,0.17,1.45,0.35,1.96,0.54c0.51,0.19,0.91,0.4,1.2,0.63
		c0.29,0.23,0.49,0.49,0.61,0.77c0.12,0.28,0.17,0.6,0.17,0.96c0,0.78-0.31,1.41-0.92,1.88c-0.61,0.47-1.43,0.71-2.45,0.71
		c-1.05,0-1.98-0.18-2.78-0.53c-0.81-0.35-1.6-0.89-2.39-1.61l-1.06,1.25c0.91,0.82,1.86,1.42,2.86,1.81c1,0.39,2.1,0.58,3.31,0.58
		c0.75,0,1.44-0.1,2.07-0.3c0.63-0.2,1.17-0.49,1.62-0.86c0.45-0.38,0.8-0.83,1.06-1.36c0.26-0.53,0.38-1.12,0.38-1.77
		c0-1.17-0.4-2.08-1.2-2.74C11.97,11,10.73,10.48,9.05,10.11z"/>
	<path d="M34.42,6.05c-0.6-0.63-1.32-1.14-2.16-1.51c-0.8-0.35-1.69-0.53-2.66-0.55c-0.05,0-0.11,0-0.16-0.01
		c-1.01,0-1.94,0.19-2.78,0.56c-0.85,0.38-1.57,0.89-2.17,1.53c-0.6,0.64-1.07,1.38-1.4,2.22c-0.33,0.84-0.5,1.73-0.5,2.66
		c0,0.93,0.16,1.82,0.49,2.66c0.33,0.84,0.79,1.57,1.39,2.21c0.6,0.63,1.32,1.14,2.16,1.51c0.84,0.37,1.77,0.56,2.79,0.56
		s1.96-0.19,2.8-0.57c0.84-0.38,1.57-0.89,2.17-1.53c0.6-0.64,1.07-1.38,1.4-2.22c0.33-0.84,0.5-1.73,0.5-2.66
		c0-0.93-0.16-1.82-0.49-2.66C35.48,7.42,35.02,6.68,34.42,6.05z M34.33,13.12c-0.26,0.67-0.62,1.26-1.08,1.76
		c-0.46,0.5-1.02,0.89-1.66,1.18c-0.65,0.29-1.35,0.43-2.12,0.43c-0.77,0-1.48-0.15-2.12-0.44c-0.65-0.29-1.21-0.69-1.68-1.19
		c-0.47-0.5-0.84-1.09-1.1-1.77c-0.26-0.68-0.39-1.4-0.39-2.17c0-0.77,0.13-1.49,0.39-2.16C24.82,8.08,25.18,7.5,25.64,7
		c0.46-0.5,1.01-0.89,1.66-1.18c0.65-0.29,1.35-0.43,2.12-0.43s1.48,0.15,2.12,0.44c0.65,0.29,1.21,0.69,1.68,1.19
		c0.47,0.5,0.84,1.09,1.1,1.77c0.26,0.68,0.39,1.4,0.39,2.17C34.72,11.72,34.59,12.44,34.33,13.12z"/>
	<path d="M47.31,4.41c-0.58-0.01-1.17-0.02-1.75-0.03v13.16c3.49-0.06,6.97-0.1,10.47-0.13v-1.47h-8.72V4.41z"/>
	<path d="M74.68,10.69c0,1.7-0.42,2.97-1.26,3.83c-0.84,0.86-1.98,1.28-3.41,1.28c-1.49,0-2.65-0.45-3.49-1.35
		c-0.83-0.9-1.25-2.19-1.25-3.87V4.56c-0.58,0-1.17-0.01-1.75-0.01v6.14c0,1.09,0.16,2.06,0.46,2.9c0.31,0.84,0.75,1.55,1.32,2.11
		c0.57,0.57,1.25,1,2.04,1.28c0.61,0.22,1.28,0.33,1.99,0.38c0.39,0,0.78,0.01,1.17,0.01c0.76-0.05,1.47-0.16,2.1-0.39
		c0.79-0.29,1.47-0.72,2.04-1.3c0.57-0.57,1.01-1.29,1.32-2.15c0.31-0.86,0.47-1.85,0.47-2.99V4.5c-0.58,0.01-1.17,0.01-1.75,0.01
		V10.69z"/>
	<path d="M98.61,14.85L88.92,4.31c-0.57,0.01-1.14,0.02-1.71,0.03v13.23c0.57,0.01,1.14,0.02,1.7,0.03V7.02l9.92,10.82
		c0.49,0.01,0.98,0.03,1.48,0.05V4.02c-0.57,0.02-1.14,0.04-1.7,0.05V14.85z"/>
	<path d="M118.42,3.34c-0.57,0.03-1.15,0.05-1.72,0.08l-6.69,14.78c0.59,0.02,1.17,0.05,1.76,0.08l1.56-3.48h8.43l1.77,4
		c0.6,0.03,1.21,0.06,1.81,0.09h0.11L118.42,3.34z M114.01,13.25l3.54-7.9l3.52,7.9H114.01z"/>
</g>
</svg>
