<?xml version="1.0" encoding="utf-8"?>
<!-- Generator: Adobe Illustrator 25.0.0, SVG Export Plug-In . SVG Version: 6.00 Build 0)  -->
<svg version="1.1" id="レイヤー_1" xmlns="http://www.w3.org/2000/svg" xmlns:xlink="http://www.w3.org/1999/xlink" x="0px"
	 y="0px" viewBox="0 0 127.8 21.2" style="enable-background:new 0 0 127.8 21.2;" xml:space="preserve">
<style type="text/css">
	.st0{fill:#707070;}
</style>
<g>
	<path class="st0" d="M9.1,10.1C8.2,9.9,7.5,9.8,7,9.6C6.5,9.4,6.1,9.1,5.8,8.9S5.2,8.4,5.1,8.1s-0.2-0.6-0.2-1c0-0.3,0.1-0.7,0.2-1
		c0.2-0.3,0.4-0.6,0.7-0.8c0.3-0.2,0.6-0.4,1-0.5c0.4-0.1,0.8-0.2,1.3-0.2c0.8,0,1.5,0.1,2.2,0.4c0.7,0.3,1.4,0.7,2.1,1.2l1-1.3
		c-0.8-0.6-1.6-1.1-2.4-1.4c-0.8-0.3-1.8-0.5-2.9-0.5c-0.7,0-1.4,0.1-2,0.3C5.6,3.7,5.1,4,4.6,4.3c-0.4,0.4-0.8,0.8-1,1.3
		C3.4,6.2,3.2,6.7,3.2,7.3c0,0.6,0.1,1.2,0.3,1.6S4,9.8,4.5,10.2s0.9,0.6,1.6,0.9s1.4,0.5,2.3,0.6c0.8,0.2,1.4,0.4,2,0.5
		s0.9,0.4,1.2,0.6c0.3,0.2,0.5,0.5,0.6,0.8s0.2,0.6,0.2,1c0,0.8-0.3,1.4-0.9,1.9s-1.4,0.7-2.4,0.7c-1.1,0-2-0.2-2.8-0.5
		c-0.8-0.4-1.6-0.9-2.4-1.6l-1.1,1.2c0.9,0.8,1.9,1.4,2.9,1.8s2.1,0.6,3.3,0.6c0.8,0,1.4-0.1,2.1-0.3c0.6-0.2,1.2-0.5,1.6-0.9
		c0.4-0.4,0.8-0.8,1.1-1.4c0.3-0.5,0.4-1.1,0.4-1.8c0-1.2-0.4-2.1-1.2-2.7C12,11,10.7,10.5,9.1,10.1z"/>
	<path class="st0" d="M34.4,6.1c-0.6-0.6-1.3-1.1-2.2-1.5C31.5,4.2,30.6,4,29.6,4c0,0-0.1,0-0.2,0c-1,0-1.9,0.2-2.8,0.6
		c-0.9,0.4-1.6,0.9-2.2,1.5s-1.1,1.4-1.4,2.2s-0.5,1.7-0.5,2.7c0,0.9,0.2,1.8,0.5,2.7s0.8,1.6,1.4,2.2c0.6,0.6,1.3,1.1,2.2,1.5
		s1.8,0.6,2.8,0.6s2-0.2,2.8-0.6s1.6-0.9,2.2-1.5c0.6-0.6,1.1-1.4,1.4-2.2s0.5-1.7,0.5-2.7s-0.2-1.8-0.5-2.7
		C35.5,7.4,35,6.7,34.4,6.1z M34.3,13.1c-0.3,0.7-0.6,1.3-1.1,1.8c-0.5,0.5-1,0.9-1.7,1.2c-0.6,0.3-1.4,0.4-2.1,0.4
		c-0.8,0-1.5-0.1-2.1-0.4c-0.6-0.3-1.2-0.7-1.7-1.2c-0.5-0.5-0.8-1.1-1.1-1.8s-0.4-1.4-0.4-2.2s0.1-1.5,0.4-2.2
		c0.2-0.7,0.6-1.3,1.1-1.8s1-0.9,1.7-1.2s1.4-0.4,2.1-0.4s1.5,0.2,2.1,0.4c0.7,0.3,1.2,0.7,1.7,1.2s0.8,1.1,1.1,1.8s0.4,1.4,0.4,2.2
		C34.7,11.7,34.6,12.4,34.3,13.1z"/>
	<path class="st0" d="M47.3,4.4c-0.6,0-1.2,0-1.8,0v13.2c3.5-0.1,7-0.1,10.5-0.1v-1.5h-8.7V4.4z"/>
	<path class="st0" d="M74.7,10.7c0,1.7-0.4,3-1.3,3.8c-0.8,0.9-2,1.3-3.4,1.3c-1.5,0-2.7-0.4-3.5-1.4c-0.8-0.9-1.2-2.2-1.2-3.9v-6
		c-0.6,0-1.2,0-1.8,0v6.1c0,1.1,0.2,2.1,0.5,2.9c0.3,0.8,0.8,1.6,1.3,2.1c0.6,0.6,1.2,1,2,1.3c0.6,0.2,1.3,0.3,2,0.4
		c0.4,0,0.8,0,1.2,0c0.8,0,1.5-0.2,2.1-0.4c0.8-0.3,1.5-0.7,2-1.3c0.6-0.6,1-1.3,1.3-2.2c0.3-0.9,0.5-1.9,0.5-3v-6
		c-0.6,0-1.2,0-1.8,0C74.7,4.5,74.7,10.7,74.7,10.7z"/>
	<path class="st0" d="M98.6,14.9L88.9,4.3c-0.6,0-1.1,0-1.7,0v13.2c0.6,0,1.1,0,1.7,0V7l9.9,10.8c0.5,0,1,0,1.5,0V4
		c-0.6,0-1.1,0-1.7,0.1V14.9z"/>
	<path class="st0" d="M118.4,3.3c-0.6,0-1.2,0-1.7,0.1L110,18.2c0.6,0,1.2,0,1.8,0.1l1.6-3.5h8.4l1.8,4c0.6,0,1.2,0.1,1.8,0.1h0.1
		L118.4,3.3z M114,13.2l3.5-7.9l3.5,7.9H114z"/>
</g>
</svg>
